<svg xmlns="http://www.w3.org/2000/svg" width="2600" height="1477" viewBox="0 0 2600 1477">
<rect width="2600" height="1477" fill="#003b95"/>
<defs><radialGradient id="vig" cx="38%" cy="42%" r="75%"><stop offset="0%" stop-color="#0a4fb0" stop-opacity="0.55"/><stop offset="55%" stop-color="#003b95" stop-opacity="0"/><stop offset="100%" stop-color="#00205a" stop-opacity="0.55"/></radialGradient></defs>
<rect width="2600" height="1477" fill="url(#vig)"/>
<g fill="none" stroke="#ffffff" stroke-width="1.5" stroke-linecap="round" stroke-linejoin="round">
<g transform="translate(130.8,98.8) rotate(-22.2) scale(7.620) translate(-12,-12)" opacity="0.092"><rect x="2" y="7" width="20" height="14" rx="2"/><path d="M16 21V5a2 2 0 0 0-2-2h-4a2 2 0 0 0-2 2v16"/></g>
<g transform="translate(463.3,85.8) rotate(-24.1) scale(6.813) translate(-12,-12)" opacity="0.086"><circle cx="5.5" cy="17.5" r="3.5"/><circle cx="18.5" cy="17.5" r="3.5"/><path d="M15 6a1 1 0 1 0 0-2 1 1 0 0 0 0 2z"/><path d="M12 17.5V14l-3-3 4-3 2 3h2"/></g>
<g transform="translate(735.1,90.4) rotate(17.0) scale(6.346) translate(-12,-12)" opacity="0.067"><path d="M3 7a2 2 0 0 1 2-2h14a2 2 0 0 1 2 2v2a2 2 0 0 0 0 6v2a2 2 0 0 1-2 2H5a2 2 0 0 1-2-2v-2a2 2 0 0 0 0-6z"/><line x1="13" y1="5" x2="13" y2="19" stroke-dasharray="1.5 2"/></g>
<g transform="translate(1087.7,165.5) rotate(4.0) scale(9.289) translate(-12,-12)" opacity="0.084"><path d="M3 13l1.7-4.6A2 2 0 0 1 6.6 7h10.8a2 2 0 0 1 1.9 1.4L21 13"/><path d="M2.5 13h19v4a1 1 0 0 1-1 1h-1.3a2.2 2.2 0 0 1-4.4 0H9.2a2.2 2.2 0 0 1-4.4 0H3.5a1 1 0 0 1-1-1z"/><circle cx="6.9" cy="18" r="1.6"/><circle cx="17.1" cy="18" r="1.6"/></g>
<g transform="translate(1548.2,84.2) rotate(-10.9) scale(8.787) translate(-12,-12)" opacity="0.069"><path d="M23 19a2 2 0 0 1-2 2H3a2 2 0 0 1-2-2V8a2 2 0 0 1 2-2h4l2-3h6l2 3h4a2 2 0 0 1 2 2z"/><circle cx="12" cy="13" r="4"/></g>
<g transform="translate(1718.7,120.9) rotate(-16.6) scale(8.549) translate(-12,-12)" opacity="0.095"><path d="M21 16v-2l-8-5V3.5a1.5 1.5 0 0 0-3 0V9l-8 5v2l8-2.5V19l-2 1.5V22l3.5-1 3.5 1v-1.5L13 19v-5.5z"/></g>
<g transform="translate(2137.5,129.8) rotate(-22.7) scale(7.039) translate(-12,-12)" opacity="0.064"><rect x="5" y="3" width="14" height="13" rx="3"/><line x1="5" y1="10" x2="19" y2="10"/><line x1="12" y1="3" x2="12" y2="10"/><path d="M8 16l-2 4"/><path d="M16 16l2 4"/><circle cx="9" cy="13" r="0.8"/><circle cx="15" cy="13" r="0.8"/></g>
<g transform="translate(2384.6,173.0) rotate(-9.7) scale(6.364) translate(-12,-12)" opacity="0.095"><circle cx="12" cy="12" r="10"/><line x1="2" y1="12" x2="22" y2="12"/><path d="M12 2a15 15 0 0 1 0 20 15 15 0 0 1 0-20z"/></g>
<g transform="translate(154.1,415.1) rotate(10.3) scale(8.427) translate(-12,-12)" opacity="0.075"><path d="M23 19a2 2 0 0 1-2 2H3a2 2 0 0 1-2-2V8a2 2 0 0 1 2-2h4l2-3h6l2 3h4a2 2 0 0 1 2 2z"/><circle cx="12" cy="13" r="4"/></g>
<g transform="translate(500.9,446.6) rotate(11.9) scale(8.881) translate(-12,-12)" opacity="0.077"><path d="M21 16v-2l-8-5V3.5a1.5 1.5 0 0 0-3 0V9l-8 5v2l8-2.5V19l-2 1.5V22l3.5-1 3.5 1v-1.5L13 19v-5.5z"/></g>
<g transform="translate(898.9,389.6) rotate(13.4) scale(6.310) translate(-12,-12)" opacity="0.069"><rect x="5" y="3" width="14" height="13" rx="3"/><line x1="5" y1="10" x2="19" y2="10"/><line x1="12" y1="3" x2="12" y2="10"/><path d="M8 16l-2 4"/><path d="M16 16l2 4"/><circle cx="9" cy="13" r="0.8"/><circle cx="15" cy="13" r="0.8"/></g>
<g transform="translate(1135.5,378.6) rotate(13.8) scale(7.717) translate(-12,-12)" opacity="0.094"><circle cx="12" cy="12" r="10"/><line x1="2" y1="12" x2="22" y2="12"/><path d="M12 2a15 15 0 0 1 0 20 15 15 0 0 1 0-20z"/></g>
<g transform="translate(1530.1,417.0) rotate(4.9) scale(7.869) translate(-12,-12)" opacity="0.095"><circle cx="12" cy="12" r="10"/><polygon points="16.24 7.76 14.12 14.12 7.76 16.24 9.88 9.88"/></g>
<g transform="translate(1779.6,490.7) rotate(-1.3) scale(9.272) translate(-12,-12)" opacity="0.045"><path d="M18 8h1a4 4 0 0 1 0 8h-1"/><path d="M2 8h16v9a4 4 0 0 1-4 4H6a4 4 0 0 1-4-4V8z"/><line x1="6" y1="1.5" x2="6" y2="4"/><line x1="10" y1="1.5" x2="10" y2="4"/><line x1="14" y1="1.5" x2="14" y2="4"/></g>
<g transform="translate(2033.4,471.3) rotate(25.6) scale(7.598) translate(-12,-12)" opacity="0.049"><rect x="3" y="4" width="18" height="13" rx="2"/><line x1="3" y1="11" x2="21" y2="11"/><circle cx="7" cy="20" r="1.4"/><circle cx="17" cy="20" r="1.4"/><line x1="7" y1="4" x2="7" y2="11"/><line x1="17" y1="4" x2="17" y2="11"/></g>
<g transform="translate(2398.7,427.1) rotate(-24.8) scale(7.720) translate(-12,-12)" opacity="0.088"><path d="M2 17V7"/><path d="M2 11h16a4 4 0 0 1 4 4v2"/><path d="M2 17h20"/><path d="M6 11V9a1 1 0 0 1 1-1h3a1 1 0 0 1 1 1v2"/></g>
<g transform="translate(102.7,684.9) rotate(13.9) scale(4.290) translate(-12,-12)" opacity="0.068"><circle cx="12" cy="12" r="10"/><polygon points="16.24 7.76 14.12 14.12 7.76 16.24 9.88 9.88"/></g>
<g transform="translate(442.1,723.2) rotate(-21.8) scale(8.860) translate(-12,-12)" opacity="0.039"><path d="M18 8h1a4 4 0 0 1 0 8h-1"/><path d="M2 8h16v9a4 4 0 0 1-4 4H6a4 4 0 0 1-4-4V8z"/><line x1="6" y1="1.5" x2="6" y2="4"/><line x1="10" y1="1.5" x2="10" y2="4"/><line x1="14" y1="1.5" x2="14" y2="4"/></g>
<g transform="translate(821.4,792.2) rotate(18.9) scale(8.567) translate(-12,-12)" opacity="0.035"><rect x="3" y="4" width="18" height="13" rx="2"/><line x1="3" y1="11" x2="21" y2="11"/><circle cx="7" cy="20" r="1.4"/><circle cx="17" cy="20" r="1.4"/><line x1="7" y1="4" x2="7" y2="11"/><line x1="17" y1="4" x2="17" y2="11"/></g>
<g transform="translate(1122.3,718.7) rotate(23.8) scale(8.932) translate(-12,-12)" opacity="0.031"><path d="M2 17V7"/><path d="M2 11h16a4 4 0 0 1 4 4v2"/><path d="M2 17h20"/><path d="M6 11V9a1 1 0 0 1 1-1h3a1 1 0 0 1 1 1v2"/></g>
<g transform="translate(1404.2,701.0) rotate(-0.8) scale(5.271) translate(-12,-12)" opacity="0.043"><path d="M21 10c0 7-9 13-9 13s-9-6-9-13a9 9 0 0 1 18 0z"/><circle cx="12" cy="10" r="3"/></g>
<g transform="translate(1744.8,669.1) rotate(-6.8) scale(6.315) translate(-12,-12)" opacity="0.042"><rect x="2" y="7" width="20" height="14" rx="2"/><path d="M16 21V5a2 2 0 0 0-2-2h-4a2 2 0 0 0-2 2v16"/></g>
<g transform="translate(2194.1,765.2) rotate(6.1) scale(6.858) translate(-12,-12)" opacity="0.045"><circle cx="5.5" cy="17.5" r="3.5"/><circle cx="18.5" cy="17.5" r="3.5"/><path d="M15 6a1 1 0 1 0 0-2 1 1 0 0 0 0 2z"/><path d="M12 17.5V14l-3-3 4-3 2 3h2"/></g>
<g transform="translate(2357.2,794.4) rotate(19.5) scale(8.346) translate(-12,-12)" opacity="0.108"><path d="M3 7a2 2 0 0 1 2-2h14a2 2 0 0 1 2 2v2a2 2 0 0 0 0 6v2a2 2 0 0 1-2 2H5a2 2 0 0 1-2-2v-2a2 2 0 0 0 0-6z"/><line x1="13" y1="5" x2="13" y2="19" stroke-dasharray="1.5 2"/></g>
<g transform="translate(143.1,1019.8) rotate(7.0) scale(4.541) translate(-12,-12)" opacity="0.064"><path d="M21 10c0 7-9 13-9 13s-9-6-9-13a9 9 0 0 1 18 0z"/><circle cx="12" cy="10" r="3"/></g>
<g transform="translate(409.6,993.1) rotate(-8.3) scale(4.871) translate(-12,-12)" opacity="0.063"><rect x="2" y="7" width="20" height="14" rx="2"/><path d="M16 21V5a2 2 0 0 0-2-2h-4a2 2 0 0 0-2 2v16"/></g>
<g transform="translate(722.5,985.1) rotate(-7.1) scale(4.529) translate(-12,-12)" opacity="0.062"><circle cx="5.5" cy="17.5" r="3.5"/><circle cx="18.5" cy="17.5" r="3.5"/><path d="M15 6a1 1 0 1 0 0-2 1 1 0 0 0 0 2z"/><path d="M12 17.5V14l-3-3 4-3 2 3h2"/></g>
<g transform="translate(1204.9,1049.9) rotate(-12.9) scale(4.794) translate(-12,-12)" opacity="0.081"><path d="M3 7a2 2 0 0 1 2-2h14a2 2 0 0 1 2 2v2a2 2 0 0 0 0 6v2a2 2 0 0 1-2 2H5a2 2 0 0 1-2-2v-2a2 2 0 0 0 0-6z"/><line x1="13" y1="5" x2="13" y2="19" stroke-dasharray="1.5 2"/></g>
<g transform="translate(1438.0,981.1) rotate(25.6) scale(8.734) translate(-12,-12)" opacity="0.088"><path d="M3 13l1.7-4.6A2 2 0 0 1 6.6 7h10.8a2 2 0 0 1 1.9 1.4L21 13"/><path d="M2.5 13h19v4a1 1 0 0 1-1 1h-1.3a2.2 2.2 0 0 1-4.4 0H9.2a2.2 2.2 0 0 1-4.4 0H3.5a1 1 0 0 1-1-1z"/><circle cx="6.9" cy="18" r="1.6"/><circle cx="17.1" cy="18" r="1.6"/></g>
<g transform="translate(1784.6,975.9) rotate(-8.2) scale(4.533) translate(-12,-12)" opacity="0.076"><path d="M23 19a2 2 0 0 1-2 2H3a2 2 0 0 1-2-2V8a2 2 0 0 1 2-2h4l2-3h6l2 3h4a2 2 0 0 1 2 2z"/><circle cx="12" cy="13" r="4"/></g>
<g transform="translate(2171.7,986.5) rotate(23.5) scale(4.088) translate(-12,-12)" opacity="0.041"><path d="M21 16v-2l-8-5V3.5a1.5 1.5 0 0 0-3 0V9l-8 5v2l8-2.5V19l-2 1.5V22l3.5-1 3.5 1v-1.5L13 19v-5.5z"/></g>
<g transform="translate(2373.9,1039.9) rotate(1.5) scale(4.110) translate(-12,-12)" opacity="0.119"><rect x="5" y="3" width="14" height="13" rx="3"/><line x1="5" y1="10" x2="19" y2="10"/><line x1="12" y1="3" x2="12" y2="10"/><path d="M8 16l-2 4"/><path d="M16 16l2 4"/><circle cx="9" cy="13" r="0.8"/><circle cx="15" cy="13" r="0.8"/></g>
<g transform="translate(227.9,1356.8) rotate(-6.9) scale(5.427) translate(-12,-12)" opacity="0.070"><path d="M3 13l1.7-4.6A2 2 0 0 1 6.6 7h10.8a2 2 0 0 1 1.9 1.4L21 13"/><path d="M2.5 13h19v4a1 1 0 0 1-1 1h-1.3a2.2 2.2 0 0 1-4.4 0H9.2a2.2 2.2 0 0 1-4.4 0H3.5a1 1 0 0 1-1-1z"/><circle cx="6.9" cy="18" r="1.6"/><circle cx="17.1" cy="18" r="1.6"/></g>
<g transform="translate(536.4,1333.9) rotate(-8.9) scale(8.341) translate(-12,-12)" opacity="0.073"><path d="M23 19a2 2 0 0 1-2 2H3a2 2 0 0 1-2-2V8a2 2 0 0 1 2-2h4l2-3h6l2 3h4a2 2 0 0 1 2 2z"/><circle cx="12" cy="13" r="4"/></g>
<g transform="translate(868.6,1397.2) rotate(15.9) scale(8.754) translate(-12,-12)" opacity="0.109"><path d="M21 16v-2l-8-5V3.5a1.5 1.5 0 0 0-3 0V9l-8 5v2l8-2.5V19l-2 1.5V22l3.5-1 3.5 1v-1.5L13 19v-5.5z"/></g>
<g transform="translate(1180.7,1291.0) rotate(-7.5) scale(6.870) translate(-12,-12)" opacity="0.062"><rect x="5" y="3" width="14" height="13" rx="3"/><line x1="5" y1="10" x2="19" y2="10"/><line x1="12" y1="3" x2="12" y2="10"/><path d="M8 16l-2 4"/><path d="M16 16l2 4"/><circle cx="9" cy="13" r="0.8"/><circle cx="15" cy="13" r="0.8"/></g>
<g transform="translate(1377.5,1298.4) rotate(10.0) scale(5.416) translate(-12,-12)" opacity="0.117"><circle cx="12" cy="12" r="10"/><line x1="2" y1="12" x2="22" y2="12"/><path d="M12 2a15 15 0 0 1 0 20 15 15 0 0 1 0-20z"/></g>
<g transform="translate(1778.0,1390.5) rotate(23.7) scale(9.516) translate(-12,-12)" opacity="0.082"><circle cx="12" cy="12" r="10"/><polygon points="16.24 7.76 14.12 14.12 7.76 16.24 9.88 9.88"/></g>
<g transform="translate(2062.2,1291.1) rotate(-15.4) scale(5.065) translate(-12,-12)" opacity="0.097"><path d="M18 8h1a4 4 0 0 1 0 8h-1"/><path d="M2 8h16v9a4 4 0 0 1-4 4H6a4 4 0 0 1-4-4V8z"/><line x1="6" y1="1.5" x2="6" y2="4"/><line x1="10" y1="1.5" x2="10" y2="4"/><line x1="14" y1="1.5" x2="14" y2="4"/></g>
<g transform="translate(2509.6,1377.0) rotate(8.0) scale(6.655) translate(-12,-12)" opacity="0.108"><rect x="3" y="4" width="18" height="13" rx="2"/><line x1="3" y1="11" x2="21" y2="11"/><circle cx="7" cy="20" r="1.4"/><circle cx="17" cy="20" r="1.4"/><line x1="7" y1="4" x2="7" y2="11"/><line x1="17" y1="4" x2="17" y2="11"/></g>
</g>
<text x="160.6" y="812" font-family="Poppins" font-weight="700" font-size="336"><tspan fill="#ffffff">Booking</tspan><tspan fill="#4a9bf2">.com</tspan></text>
<g transform="translate(1505,985) scale(10.417)" fill="none" stroke="#febb02" stroke-width="1.7" stroke-linecap="round" stroke-linejoin="round"><rect x="9.5" y="2" width="5" height="2.4" rx="0.6"/><path d="M3 13l1.7-4.6A2 2 0 0 1 6.6 7h10.8a2 2 0 0 1 1.9 1.4L21 13"/><path d="M2.5 13h19v4a1 1 0 0 1-1 1h-1.3a2.2 2.2 0 0 1-4.4 0H9.2a2.2 2.2 0 0 1-4.4 0H3.5a1 1 0 0 1-1-1z"/><line x1="12" y1="7" x2="12" y2="13"/><circle cx="6.9" cy="18" r="1.7"/><circle cx="17.1" cy="18" r="1.7"/></g>
<text x="1775" y="1170" font-family="Poppins" font-weight="700" font-size="250" fill="#febb02">Taxi</text>
</svg>